<mxfile host="app.diagrams.net" agent="Mozilla/5.0 (Windows NT 10.0; Win64; x64) AppleWebKit/537.36 (KHTML, like Gecko) Chrome/129.0.0.0 Safari/537.36" version="24.7.12">
  <diagram name="Page-1" id="eDQzDHfnoMR87hN6Yp2t">
    <mxGraphModel dx="1050" dy="653" grid="1" gridSize="10" guides="1" tooltips="1" connect="1" arrows="1" fold="1" page="1" pageScale="1" pageWidth="827" pageHeight="1169" math="0" shadow="0">
      <root>
        <mxCell id="0" />
        <mxCell id="1" parent="0" />
        <mxCell id="bBpBFhRtraRwKpqQrUSg-6" style="edgeStyle=orthogonalEdgeStyle;rounded=1;orthogonalLoop=1;jettySize=auto;html=1;entryX=0;entryY=0.5;entryDx=0;entryDy=0;strokeWidth=2;curved=0;startArrow=classic;startFill=1;" edge="1" parent="1" source="bBpBFhRtraRwKpqQrUSg-1" target="bBpBFhRtraRwKpqQrUSg-2">
          <mxGeometry relative="1" as="geometry" />
        </mxCell>
        <mxCell id="bBpBFhRtraRwKpqQrUSg-1" value="Client" style="rounded=1;whiteSpace=wrap;html=1;strokeWidth=2;" vertex="1" parent="1">
          <mxGeometry x="260" y="310" width="120" height="60" as="geometry" />
        </mxCell>
        <mxCell id="bBpBFhRtraRwKpqQrUSg-7" style="edgeStyle=orthogonalEdgeStyle;rounded=1;orthogonalLoop=1;jettySize=auto;html=1;entryX=0;entryY=0.5;entryDx=0;entryDy=0;strokeWidth=2;curved=0;startArrow=classic;startFill=1;" edge="1" parent="1" source="bBpBFhRtraRwKpqQrUSg-2" target="bBpBFhRtraRwKpqQrUSg-4">
          <mxGeometry relative="1" as="geometry" />
        </mxCell>
        <mxCell id="bBpBFhRtraRwKpqQrUSg-2" value="Gateway" style="rounded=1;whiteSpace=wrap;html=1;strokeWidth=2;" vertex="1" parent="1">
          <mxGeometry x="520" y="310" width="120" height="60" as="geometry" />
        </mxCell>
        <mxCell id="bBpBFhRtraRwKpqQrUSg-8" style="edgeStyle=orthogonalEdgeStyle;rounded=1;orthogonalLoop=1;jettySize=auto;html=1;exitX=0;exitY=0.5;exitDx=0;exitDy=0;entryX=0.5;entryY=1;entryDx=0;entryDy=0;strokeWidth=2;curved=0;startArrow=classic;startFill=1;" edge="1" parent="1" source="bBpBFhRtraRwKpqQrUSg-3" target="bBpBFhRtraRwKpqQrUSg-2">
          <mxGeometry relative="1" as="geometry" />
        </mxCell>
        <mxCell id="bBpBFhRtraRwKpqQrUSg-3" value="Product API" style="rounded=1;whiteSpace=wrap;html=1;strokeWidth=2;" vertex="1" parent="1">
          <mxGeometry x="690" y="410" width="120" height="60" as="geometry" />
        </mxCell>
        <mxCell id="bBpBFhRtraRwKpqQrUSg-4" value="User API" style="rounded=1;whiteSpace=wrap;html=1;strokeWidth=2;" vertex="1" parent="1">
          <mxGeometry x="690" y="220" width="120" height="60" as="geometry" />
        </mxCell>
        <mxCell id="bBpBFhRtraRwKpqQrUSg-5" value="DB" style="shape=cylinder3;whiteSpace=wrap;html=1;boundedLbl=1;backgroundOutline=1;size=15;strokeWidth=2;" vertex="1" parent="1">
          <mxGeometry x="930" y="300" width="60" height="80" as="geometry" />
        </mxCell>
        <mxCell id="bBpBFhRtraRwKpqQrUSg-9" style="edgeStyle=orthogonalEdgeStyle;rounded=1;orthogonalLoop=1;jettySize=auto;html=1;exitX=1;exitY=0.5;exitDx=0;exitDy=0;entryX=0.373;entryY=-0.008;entryDx=0;entryDy=0;entryPerimeter=0;strokeWidth=2;curved=0;startArrow=classic;startFill=1;" edge="1" parent="1" source="bBpBFhRtraRwKpqQrUSg-4" target="bBpBFhRtraRwKpqQrUSg-5">
          <mxGeometry relative="1" as="geometry" />
        </mxCell>
        <mxCell id="bBpBFhRtraRwKpqQrUSg-10" style="edgeStyle=orthogonalEdgeStyle;rounded=1;orthogonalLoop=1;jettySize=auto;html=1;exitX=1;exitY=0.5;exitDx=0;exitDy=0;entryX=0.5;entryY=1;entryDx=0;entryDy=0;entryPerimeter=0;strokeWidth=2;curved=0;startArrow=classic;startFill=1;" edge="1" parent="1" source="bBpBFhRtraRwKpqQrUSg-3" target="bBpBFhRtraRwKpqQrUSg-5">
          <mxGeometry relative="1" as="geometry" />
        </mxCell>
        <mxCell id="bBpBFhRtraRwKpqQrUSg-14" style="edgeStyle=orthogonalEdgeStyle;rounded=0;orthogonalLoop=1;jettySize=auto;html=1;exitX=0.5;exitY=0.5;exitDx=0;exitDy=0;exitPerimeter=0;entryX=0;entryY=0.5;entryDx=0;entryDy=0;strokeWidth=2;" edge="1" parent="1" source="bBpBFhRtraRwKpqQrUSg-12" target="bBpBFhRtraRwKpqQrUSg-1">
          <mxGeometry relative="1" as="geometry" />
        </mxCell>
        <mxCell id="bBpBFhRtraRwKpqQrUSg-12" value="User" style="shape=umlActor;verticalLabelPosition=bottom;verticalAlign=top;html=1;outlineConnect=0;strokeWidth=2;" vertex="1" parent="1">
          <mxGeometry x="100" y="310" width="30" height="60" as="geometry" />
        </mxCell>
      </root>
    </mxGraphModel>
  </diagram>
</mxfile>
